<svg xmlns="http://www.w3.org/2000/svg" xmlns:xlink="http://www.w3.org/1999/xlink" width="500" zoomAndPan="magnify" viewBox="0 0 375 374.999991" height="500" preserveAspectRatio="xMidYMid meet" version="1.0"><defs><g/><clipPath id="19903af0ae"><path d="M 129 89.042969 L 246.28125 89.042969 L 246.28125 239.042969 L 129 239.042969 Z M 129 89.042969 " clip-rule="nonzero"/></clipPath></defs><rect x="-37.5" width="450" fill="#ffffff" y="-37.499999" height="449.999989" fill-opacity="1"/><rect x="-37.5" width="450" fill="#545454" y="-37.499999" height="449.999989" fill-opacity="1"/><g clip-path="url(#19903af0ae)"><path fill="#f7fbfa" d="M 129.871094 99.980469 C 128.558594 125.289062 156.539062 173.492188 170.132812 195.359375 C 170.214844 195.492188 170.378906 195.550781 170.527344 195.5 C 170.679688 195.449219 170.773438 195.304688 170.757812 195.148438 C 168.421875 168.394531 161.042969 145.09375 181.84375 118.136719 C 181.847656 118.132812 181.851562 118.128906 181.855469 118.125 C 184.054688 114.984375 186.21875 112.03125 188.542969 108.867188 C 191.628906 104.660156 194.992188 100.078125 198.640625 94.8125 C 198.730469 94.679688 198.71875 94.503906 198.609375 94.386719 C 198.5 94.269531 198.332031 94.242188 198.191406 94.320312 C 176.730469 106.652344 150.316406 135.121094 131.613281 102.164062 C 131.613281 102.15625 131.609375 102.152344 131.605469 102.144531 C 131.234375 101.390625 130.875 100.628906 130.523438 99.859375 C 130.457031 99.714844 130.304688 99.636719 130.148438 99.667969 C 129.992188 99.699219 129.882812 99.824219 129.871094 99.980469 Z M 179.402344 132.246094 C 179.277344 132.246094 179.171875 132.183594 179.105469 132.078125 C 179.042969 131.96875 179.042969 131.84375 179.109375 131.734375 C 180.839844 128.765625 182.75 125.789062 184.757812 122.855469 C 184.828125 122.75 184.945312 122.695312 185.070312 122.707031 C 187.511719 122.964844 189.878906 123.390625 192.242188 124.003906 C 192.347656 124.03125 192.429688 124.101562 192.472656 124.203125 C 192.511719 124.308594 192.503906 124.414062 192.449219 124.507812 C 190.800781 127.238281 189.25 130.007812 187.824219 132.8125 C 187.753906 132.949219 187.605469 133.019531 187.457031 132.992188 C 184.800781 132.472656 182.101562 132.222656 179.402344 132.246094 Z M 140.03125 177.667969 C 141.15625 186.066406 144.949219 194.179688 151.414062 200.644531 C 167.0625 216.292969 192.429688 216.292969 208.078125 200.644531 C 221.40625 187.316406 223.546875 166.628906 213.671875 150.964844 C 213.617188 150.882812 213.605469 150.789062 213.628906 150.691406 C 213.65625 150.597656 213.71875 150.523438 213.804688 150.480469 C 216.523438 149.125 219.386719 147.917969 222.328125 146.835938 C 222.480469 146.777344 222.652344 146.839844 222.738281 146.980469 C 233.382812 165.015625 231.609375 187.988281 218.125 204.183594 C 218.015625 204.320312 218.023438 204.519531 218.148438 204.640625 L 226.574219 213.070312 C 226.707031 213.203125 226.921875 213.203125 227.054688 213.070312 L 228.167969 211.957031 C 228.390625 211.734375 228.769531 211.734375 228.992188 211.957031 L 246.300781 229.269531 C 246.421875 229.386719 246.480469 229.535156 246.480469 229.679688 L 246.46875 229.679688 C 246.46875 229.832031 246.414062 229.980469 246.300781 230.09375 L 237.523438 238.871094 C 237.414062 238.980469 237.265625 239.039062 237.113281 239.039062 L 237.113281 239.046875 C 236.96875 239.046875 236.820312 238.988281 236.699219 238.871094 L 219.390625 221.558594 C 219.167969 221.335938 219.167969 220.957031 219.390625 220.734375 L 220.5 219.625 C 220.632812 219.492188 220.632812 219.277344 220.5 219.144531 L 212.074219 210.714844 C 211.949219 210.589844 211.753906 210.582031 211.617188 210.695312 C 202.402344 218.363281 191.074219 222.199219 179.746094 222.199219 C 153.457031 222.199219 131.664062 201.789062 129.964844 175.574219 C 129.304688 165.433594 131.726562 155.132812 137.222656 146.195312 C 137.292969 146.082031 137.410156 146.023438 137.539062 146.035156 C 137.671875 146.042969 137.777344 146.121094 137.828125 146.242188 C 139.335938 149.84375 140.941406 153.425781 142.617188 156.933594 C 142.660156 157.023438 142.660156 157.117188 142.625 157.207031 C 139.972656 163.722656 139.109375 170.792969 140.03125 177.667969 Z M 224.347656 117.121094 C 224.347656 125.082031 234.015625 129.085938 239.644531 123.457031 C 245.273438 117.828125 241.265625 108.164062 233.308594 108.164062 C 228.359375 108.164062 224.347656 112.175781 224.347656 117.121094 Z M 213.746094 103.640625 C 213.84375 103.523438 214.003906 103.484375 214.144531 103.546875 C 214.285156 103.609375 214.367188 103.75 214.34375 103.902344 C 212.917969 114.40625 216.339844 122.152344 220.171875 126.863281 C 224.023438 131.597656 228.308594 133.273438 237.804688 136.679688 C 237.945312 136.730469 238.035156 136.863281 238.027344 137.015625 C 238.019531 137.167969 237.917969 137.292969 237.769531 137.328125 C 227.039062 139.960938 213.097656 143.730469 206.570312 148.957031 C 194.238281 158.835938 189.238281 173.96875 183.386719 191.339844 C 183.332031 191.5 183.175781 191.59375 183.011719 191.566406 C 182.847656 191.542969 182.726562 191.40625 182.722656 191.238281 C 182.449219 178.179688 183.394531 157.300781 187.523438 146.125 C 192.4375 132.816406 200.851562 119.289062 213.746094 103.640625 Z M 147.078125 98.777344 C 147.078125 93.394531 151.4375 89.035156 156.820312 89.035156 C 165.472656 89.035156 169.824219 99.546875 163.707031 105.664062 C 157.585938 111.78125 147.078125 107.429688 147.078125 98.777344 Z M 147.078125 98.777344 " fill-opacity="1" fill-rule="evenodd"/></g><g fill="#f7fbfa" fill-opacity="1"><g transform="translate(91.195546, 265.443424)"><g><path d="M 8.96875 -6.6875 L 8.96875 -22.703125 C 8.96875 -23.054688 9.160156 -23.234375 9.546875 -23.234375 L 12.6875 -23.234375 C 13.082031 -23.234375 13.28125 -23.054688 13.28125 -22.703125 L 13.28125 -6.65625 C 13.28125 -5.226562 13 -3.988281 12.4375 -2.9375 C 11.875 -1.882812 11.070312 -1.070312 10.03125 -0.5 C 9 0.0703125 7.78125 0.359375 6.375 0.359375 C 5.207031 0.359375 4.144531 0.117188 3.1875 -0.359375 C 2.226562 -0.835938 1.429688 -1.546875 0.796875 -2.484375 C 0.503906 -2.867188 0.503906 -3.179688 0.796875 -3.421875 L 2.90625 -5.34375 C 3.050781 -5.46875 3.207031 -5.519531 3.375 -5.5 C 3.550781 -5.488281 3.703125 -5.398438 3.828125 -5.234375 C 4.078125 -4.796875 4.421875 -4.453125 4.859375 -4.203125 C 5.304688 -3.960938 5.8125 -3.84375 6.375 -3.84375 C 7.15625 -3.84375 7.78125 -4.101562 8.25 -4.625 C 8.726562 -5.15625 8.96875 -5.84375 8.96875 -6.6875 Z M 8.96875 -6.6875 "/></g></g></g><g fill="#f7fbfa" fill-opacity="1"><g transform="translate(109.961502, 265.443424)"><g><path d="M 1.375 -11.578125 C 1.375 -12.921875 1.570312 -14.195312 1.96875 -15.40625 C 2.363281 -16.613281 2.925781 -17.710938 3.65625 -18.703125 C 4.394531 -19.703125 5.265625 -20.566406 6.265625 -21.296875 C 7.265625 -22.023438 8.367188 -22.585938 9.578125 -22.984375 C 10.796875 -23.378906 12.078125 -23.578125 13.421875 -23.578125 C 14.765625 -23.578125 16.039062 -23.378906 17.25 -22.984375 C 18.46875 -22.585938 19.578125 -22.023438 20.578125 -21.296875 C 21.578125 -20.566406 22.441406 -19.703125 23.171875 -18.703125 C 23.910156 -17.710938 24.476562 -16.613281 24.875 -15.40625 C 25.269531 -14.195312 25.46875 -12.921875 25.46875 -11.578125 C 25.46875 -10.234375 25.269531 -8.957031 24.875 -7.75 C 24.476562 -6.550781 23.910156 -5.457031 23.171875 -4.46875 C 22.441406 -3.476562 21.578125 -2.617188 20.578125 -1.890625 C 19.578125 -1.171875 18.46875 -0.613281 17.25 -0.21875 C 16.039062 0.164062 14.765625 0.359375 13.421875 0.359375 C 12.078125 0.359375 10.796875 0.164062 9.578125 -0.21875 C 8.367188 -0.613281 7.265625 -1.171875 6.265625 -1.890625 C 5.265625 -2.617188 4.394531 -3.476562 3.65625 -4.46875 C 2.925781 -5.457031 2.363281 -6.550781 1.96875 -7.75 C 1.570312 -8.957031 1.375 -10.234375 1.375 -11.578125 Z M 5.6875 -11.578125 C 5.6875 -10.492188 5.878906 -9.488281 6.265625 -8.5625 C 6.660156 -7.644531 7.210938 -6.835938 7.921875 -6.140625 C 8.628906 -5.453125 9.453125 -4.910156 10.390625 -4.515625 C 11.328125 -4.128906 12.335938 -3.9375 13.421875 -3.9375 C 14.515625 -3.9375 15.523438 -4.128906 16.453125 -4.515625 C 17.390625 -4.910156 18.210938 -5.453125 18.921875 -6.140625 C 19.628906 -6.835938 20.175781 -7.644531 20.5625 -8.5625 C 20.957031 -9.488281 21.15625 -10.492188 21.15625 -11.578125 C 21.15625 -12.660156 20.957031 -13.671875 20.5625 -14.609375 C 20.164062 -15.546875 19.613281 -16.363281 18.90625 -17.0625 C 18.207031 -17.757812 17.390625 -18.300781 16.453125 -18.6875 C 15.515625 -19.082031 14.503906 -19.28125 13.421875 -19.28125 C 12.335938 -19.28125 11.328125 -19.082031 10.390625 -18.6875 C 9.453125 -18.300781 8.628906 -17.757812 7.921875 -17.0625 C 7.222656 -16.363281 6.675781 -15.546875 6.28125 -14.609375 C 5.882812 -13.671875 5.6875 -12.660156 5.6875 -11.578125 Z M 5.6875 -11.578125 "/></g></g></g><g fill="#f7fbfa" fill-opacity="1"><g transform="translate(139.93032, 265.443424)"><g><path d="M 16.546875 -13 C 17.390625 -12.757812 18.144531 -12.363281 18.8125 -11.8125 C 19.488281 -11.257812 20.019531 -10.585938 20.40625 -9.796875 C 20.800781 -9.003906 21 -8.140625 21 -7.203125 C 21 -6.191406 20.789062 -5.25 20.375 -4.375 C 19.96875 -3.507812 19.394531 -2.742188 18.65625 -2.078125 C 17.925781 -1.421875 17.070312 -0.910156 16.09375 -0.546875 C 15.125 -0.179688 14.078125 0 12.953125 0 L 3.28125 0 C 2.9375 0 2.765625 -0.171875 2.765625 -0.515625 L 2.765625 -22.71875 C 2.765625 -23.050781 2.9375 -23.21875 3.28125 -23.21875 L 12.28125 -23.21875 C 13.269531 -23.21875 14.191406 -23.066406 15.046875 -22.765625 C 15.898438 -22.472656 16.648438 -22.054688 17.296875 -21.515625 C 17.941406 -20.984375 18.445312 -20.359375 18.8125 -19.640625 C 19.175781 -18.929688 19.359375 -18.164062 19.359375 -17.34375 C 19.359375 -16.707031 19.238281 -16.101562 19 -15.53125 C 18.757812 -14.957031 18.425781 -14.453125 18 -14.015625 C 17.582031 -13.578125 17.097656 -13.238281 16.546875 -13 Z M 15.265625 -16.71875 C 15.265625 -17.207031 15.128906 -17.648438 14.859375 -18.046875 C 14.597656 -18.441406 14.242188 -18.753906 13.796875 -18.984375 C 13.347656 -19.222656 12.84375 -19.34375 12.28125 -19.34375 L 7.078125 -19.34375 L 7.078125 -14.25 L 12.28125 -14.25 C 12.84375 -14.25 13.347656 -14.347656 13.796875 -14.546875 C 14.242188 -14.742188 14.597656 -15.023438 14.859375 -15.390625 C 15.128906 -15.765625 15.265625 -16.207031 15.265625 -16.71875 Z M 12.859375 -3.90625 C 13.566406 -3.90625 14.210938 -4.0625 14.796875 -4.375 C 15.378906 -4.6875 15.84375 -5.113281 16.1875 -5.65625 C 16.53125 -6.195312 16.703125 -6.800781 16.703125 -7.46875 C 16.703125 -8.175781 16.53125 -8.769531 16.1875 -9.25 C 15.84375 -9.726562 15.378906 -10.09375 14.796875 -10.34375 C 14.210938 -10.59375 13.566406 -10.71875 12.859375 -10.71875 L 7.078125 -10.71875 L 7.078125 -3.90625 Z M 12.859375 -3.90625 "/></g></g></g><g fill="#f7fbfa" fill-opacity="1"><g transform="translate(165.451622, 265.443424)"><g><path d="M 19.53125 -23.25 C 19.757812 -23.25 19.921875 -23.175781 20.015625 -23.03125 C 20.109375 -22.894531 20.097656 -22.695312 19.984375 -22.4375 L 12.375 -9.1875 L 12.375 -0.671875 C 12.375 -0.210938 12.15625 0.015625 11.71875 0.015625 L 8.75 0.015625 C 8.28125 0.015625 8.046875 -0.210938 8.046875 -0.671875 L 8.046875 -9.21875 L 0.4375 -22.4375 C 0.34375 -22.707031 0.34375 -22.910156 0.4375 -23.046875 C 0.53125 -23.179688 0.695312 -23.25 0.9375 -23.25 L 4.40625 -23.25 C 4.550781 -23.25 4.695312 -23.191406 4.84375 -23.078125 C 5 -22.972656 5.125 -22.832031 5.21875 -22.65625 L 10.21875 -13.59375 L 15.21875 -22.671875 C 15.425781 -23.054688 15.703125 -23.25 16.046875 -23.25 Z M 19.53125 -23.25 "/></g></g></g><g fill="#f7fbfa" fill-opacity="1"><g transform="translate(189.016625, 265.443424)"><g><path d="M 27.65625 -0.6875 C 27.675781 -0.445312 27.625 -0.269531 27.5 -0.15625 C 27.382812 -0.0390625 27.210938 0.015625 26.984375 0.015625 L 24.015625 0.015625 C 23.804688 0.015625 23.640625 -0.0351562 23.515625 -0.140625 C 23.398438 -0.242188 23.332031 -0.410156 23.3125 -0.640625 L 22.21875 -11.984375 L 15.3125 -0.28125 C 15.1875 -0.0625 15.078125 0.09375 14.984375 0.1875 C 14.890625 0.289062 14.753906 0.34375 14.578125 0.34375 L 14.5625 0.34375 C 14.363281 0.34375 14.21875 0.289062 14.125 0.1875 C 14.039062 0.09375 13.929688 -0.0625 13.796875 -0.28125 L 6.90625 -11.96875 L 5.796875 -0.640625 C 5.765625 -0.410156 5.691406 -0.242188 5.578125 -0.140625 C 5.460938 -0.0351562 5.300781 0.015625 5.09375 0.015625 L 2.125 0.015625 C 1.894531 0.015625 1.71875 -0.0390625 1.59375 -0.15625 C 1.46875 -0.269531 1.421875 -0.445312 1.453125 -0.6875 L 3.703125 -23.015625 C 3.734375 -23.390625 3.925781 -23.578125 4.28125 -23.578125 L 4.359375 -23.578125 C 4.546875 -23.578125 4.675781 -23.523438 4.75 -23.421875 C 4.820312 -23.328125 4.910156 -23.203125 5.015625 -23.046875 L 14.5625 -6.84375 L 24.09375 -23.046875 C 24.195312 -23.203125 24.285156 -23.328125 24.359375 -23.421875 C 24.429688 -23.523438 24.5625 -23.578125 24.75 -23.578125 L 24.8125 -23.578125 C 25.15625 -23.578125 25.351562 -23.390625 25.40625 -23.015625 Z M 27.65625 -0.6875 "/></g></g></g><g fill="#f7fbfa" fill-opacity="1"><g transform="translate(221.232141, 265.443424)"><g><path d="M 7.078125 -22.734375 L 7.078125 -0.484375 C 7.078125 -0.148438 6.90625 0.015625 6.5625 0.015625 L 3.265625 0.015625 C 2.929688 0.015625 2.765625 -0.148438 2.765625 -0.484375 L 2.765625 -22.734375 C 2.765625 -23.078125 2.929688 -23.25 3.265625 -23.25 L 6.5625 -23.25 C 6.90625 -23.25 7.078125 -23.078125 7.078125 -22.734375 Z M 7.078125 -22.734375 "/></g></g></g><g fill="#f7fbfa" fill-opacity="1"><g transform="translate(234.205609, 265.443424)"><g><path d="M 17.359375 -6.859375 L 20.46875 -0.78125 C 20.582031 -0.550781 20.597656 -0.359375 20.515625 -0.203125 C 20.429688 -0.0546875 20.269531 0.015625 20.03125 0.015625 L 16.671875 0.015625 C 16.523438 0.015625 16.378906 -0.0351562 16.234375 -0.140625 C 16.085938 -0.253906 15.972656 -0.390625 15.890625 -0.546875 L 13.484375 -5.46875 C 13.234375 -5.425781 12.972656 -5.394531 12.703125 -5.375 C 12.441406 -5.363281 12.171875 -5.359375 11.890625 -5.359375 L 7.09375 -5.359375 L 7.09375 -0.65625 C 7.09375 -0.457031 7.023438 -0.296875 6.890625 -0.171875 C 6.765625 -0.046875 6.597656 0.015625 6.390625 0.015625 L 3.453125 0.015625 C 3.265625 0.015625 3.101562 -0.046875 2.96875 -0.171875 C 2.832031 -0.296875 2.765625 -0.457031 2.765625 -0.65625 L 2.765625 -22.5625 C 2.765625 -22.757812 2.832031 -22.914062 2.96875 -23.03125 C 3.101562 -23.15625 3.265625 -23.21875 3.453125 -23.21875 L 4.21875 -23.21875 C 4.664062 -23.21875 5.101562 -23.21875 5.53125 -23.21875 C 5.96875 -23.21875 6.28125 -23.21875 6.46875 -23.21875 L 11.890625 -23.21875 C 13.253906 -23.21875 14.507812 -22.992188 15.65625 -22.546875 C 16.800781 -22.109375 17.789062 -21.488281 18.625 -20.6875 C 19.46875 -19.882812 20.117188 -18.929688 20.578125 -17.828125 C 21.046875 -16.722656 21.28125 -15.519531 21.28125 -14.21875 C 21.28125 -12.632812 20.925781 -11.207031 20.21875 -9.9375 C 19.519531 -8.675781 18.566406 -7.648438 17.359375 -6.859375 Z M 11.625 -8.96875 C 12.65625 -8.96875 13.570312 -9.191406 14.375 -9.640625 C 15.1875 -10.085938 15.820312 -10.707031 16.28125 -11.5 C 16.738281 -12.300781 16.96875 -13.21875 16.96875 -14.25 C 16.96875 -15 16.832031 -15.691406 16.5625 -16.328125 C 16.289062 -16.960938 15.914062 -17.515625 15.4375 -17.984375 C 14.957031 -18.453125 14.390625 -18.8125 13.734375 -19.0625 C 13.085938 -19.320312 12.382812 -19.453125 11.625 -19.453125 L 7.09375 -19.453125 L 7.09375 -8.96875 Z M 11.625 -8.96875 "/></g></g></g><g fill="#f7fbfa" fill-opacity="1"><g transform="translate(260.521651, 265.443424)"><g><path d="M 22.484375 -0.75 C 22.585938 -0.519531 22.59375 -0.332031 22.5 -0.1875 C 22.414062 -0.0390625 22.242188 0.03125 21.984375 0.03125 L 18.703125 0.03125 C 18.523438 0.03125 18.367188 -0.0234375 18.234375 -0.140625 C 18.097656 -0.265625 17.992188 -0.40625 17.921875 -0.5625 L 16.984375 -2.828125 L 6.3125 -2.828125 L 5.375 -0.578125 C 5.3125 -0.421875 5.210938 -0.28125 5.078125 -0.15625 C 4.941406 -0.0390625 4.78125 0.015625 4.59375 0.015625 L 1.3125 0.015625 C 1.0625 0.015625 0.882812 -0.0507812 0.78125 -0.1875 C 0.6875 -0.332031 0.691406 -0.523438 0.796875 -0.765625 L 10.6875 -22.9375 C 10.769531 -23.113281 10.890625 -23.253906 11.046875 -23.359375 C 11.203125 -23.472656 11.363281 -23.53125 11.53125 -23.53125 L 11.734375 -23.53125 C 11.910156 -23.53125 12.070312 -23.472656 12.21875 -23.359375 C 12.375 -23.242188 12.488281 -23.097656 12.5625 -22.921875 Z M 7.828125 -6.53125 L 15.453125 -6.53125 L 11.65625 -15.78125 Z M 7.828125 -6.53125 "/></g></g></g><g fill="#f7fbfa" fill-opacity="0.4"><g transform="translate(101.608922, 277.312599)"><g><path d="M 3.65625 -1.453125 L 4.328125 -0.171875 C 4.347656 -0.117188 4.347656 -0.078125 4.328125 -0.046875 C 4.316406 -0.015625 4.285156 0 4.234375 0 L 3.515625 0 C 3.484375 0 3.453125 -0.0078125 3.421875 -0.03125 C 3.390625 -0.0507812 3.367188 -0.078125 3.359375 -0.109375 L 2.84375 -1.15625 C 2.789062 -1.144531 2.734375 -1.132812 2.671875 -1.125 C 2.617188 -1.125 2.566406 -1.125 2.515625 -1.125 L 1.5 -1.125 L 1.5 -0.140625 C 1.5 -0.0976562 1.484375 -0.0625 1.453125 -0.03125 C 1.421875 -0.0078125 1.382812 0 1.34375 0 L 0.734375 0 C 0.691406 0 0.65625 -0.0078125 0.625 -0.03125 C 0.59375 -0.0625 0.578125 -0.0976562 0.578125 -0.140625 L 0.578125 -4.765625 C 0.578125 -4.804688 0.59375 -4.835938 0.625 -4.859375 C 0.65625 -4.890625 0.691406 -4.90625 0.734375 -4.90625 L 0.890625 -4.90625 C 0.984375 -4.90625 1.078125 -4.90625 1.171875 -4.90625 C 1.265625 -4.90625 1.328125 -4.90625 1.359375 -4.90625 L 2.515625 -4.90625 C 2.796875 -4.90625 3.054688 -4.859375 3.296875 -4.765625 C 3.546875 -4.671875 3.757812 -4.535156 3.9375 -4.359375 C 4.113281 -4.191406 4.25 -3.992188 4.34375 -3.765625 C 4.445312 -3.535156 4.5 -3.28125 4.5 -3 C 4.5 -2.664062 4.421875 -2.363281 4.265625 -2.09375 C 4.117188 -1.832031 3.914062 -1.617188 3.65625 -1.453125 Z M 2.453125 -1.890625 C 2.671875 -1.890625 2.863281 -1.9375 3.03125 -2.03125 C 3.207031 -2.125 3.34375 -2.253906 3.4375 -2.421875 C 3.53125 -2.597656 3.578125 -2.789062 3.578125 -3 C 3.578125 -3.164062 3.546875 -3.3125 3.484375 -3.4375 C 3.429688 -3.570312 3.351562 -3.6875 3.25 -3.78125 C 3.15625 -3.882812 3.035156 -3.960938 2.890625 -4.015625 C 2.753906 -4.078125 2.609375 -4.109375 2.453125 -4.109375 L 1.5 -4.109375 L 1.5 -1.890625 Z M 2.453125 -1.890625 "/></g></g></g><g fill="#f7fbfa" fill-opacity="0.4"><g transform="translate(111.783376, 277.312599)"><g><path d="M 4.140625 -0.859375 C 4.191406 -0.859375 4.234375 -0.84375 4.265625 -0.8125 C 4.304688 -0.78125 4.328125 -0.738281 4.328125 -0.6875 L 4.328125 -0.140625 C 4.328125 -0.0976562 4.3125 -0.0625 4.28125 -0.03125 C 4.257812 -0.0078125 4.226562 0 4.1875 0 L 0.734375 0 C 0.628906 0 0.578125 -0.046875 0.578125 -0.140625 L 0.578125 -4.75 C 0.578125 -4.851562 0.628906 -4.90625 0.734375 -4.90625 L 4.109375 -4.90625 C 4.160156 -4.90625 4.195312 -4.890625 4.21875 -4.859375 C 4.25 -4.835938 4.265625 -4.804688 4.265625 -4.765625 L 4.265625 -4.1875 C 4.265625 -4.082031 4.210938 -4.03125 4.109375 -4.03125 L 1.5 -4.03125 L 1.5 -2.6875 L 3.546875 -2.6875 C 3.597656 -2.6875 3.640625 -2.671875 3.671875 -2.640625 C 3.703125 -2.617188 3.71875 -2.582031 3.71875 -2.53125 L 3.71875 -2 C 3.71875 -1.957031 3.703125 -1.921875 3.671875 -1.890625 C 3.640625 -1.859375 3.597656 -1.84375 3.546875 -1.84375 L 1.5 -1.84375 L 1.5 -0.859375 Z M 4.140625 -0.859375 "/></g></g></g><g fill="#f7fbfa" fill-opacity="0.4"><g transform="translate(121.722654, 277.312599)"><g><path d="M 3.828125 -1.171875 C 3.867188 -1.203125 3.910156 -1.21875 3.953125 -1.21875 C 3.992188 -1.21875 4.023438 -1.203125 4.046875 -1.171875 L 4.40625 -0.609375 C 4.425781 -0.585938 4.429688 -0.554688 4.421875 -0.515625 C 4.410156 -0.484375 4.382812 -0.453125 4.34375 -0.421875 C 4.21875 -0.328125 4.070312 -0.238281 3.90625 -0.15625 C 3.738281 -0.0820312 3.5625 -0.0234375 3.375 0.015625 C 3.195312 0.0546875 3.023438 0.078125 2.859375 0.078125 C 2.578125 0.078125 2.304688 0.0351562 2.046875 -0.046875 C 1.785156 -0.128906 1.546875 -0.242188 1.328125 -0.390625 C 1.117188 -0.546875 0.9375 -0.726562 0.78125 -0.9375 C 0.625 -1.15625 0.503906 -1.390625 0.421875 -1.640625 C 0.335938 -1.890625 0.296875 -2.160156 0.296875 -2.453125 C 0.296875 -2.734375 0.335938 -3 0.421875 -3.25 C 0.503906 -3.507812 0.625 -3.742188 0.78125 -3.953125 C 0.9375 -4.160156 1.117188 -4.335938 1.328125 -4.484375 C 1.546875 -4.640625 1.785156 -4.757812 2.046875 -4.84375 C 2.304688 -4.925781 2.578125 -4.96875 2.859375 -4.96875 C 3.023438 -4.96875 3.195312 -4.945312 3.375 -4.90625 C 3.550781 -4.875 3.722656 -4.816406 3.890625 -4.734375 C 4.066406 -4.660156 4.222656 -4.570312 4.359375 -4.46875 C 4.398438 -4.4375 4.421875 -4.398438 4.421875 -4.359375 C 4.429688 -4.328125 4.425781 -4.300781 4.40625 -4.28125 L 4.046875 -3.71875 C 4.023438 -3.6875 3.992188 -3.664062 3.953125 -3.65625 C 3.921875 -3.65625 3.878906 -3.675781 3.828125 -3.71875 C 3.691406 -3.832031 3.535156 -3.914062 3.359375 -3.96875 C 3.191406 -4.03125 3.023438 -4.0625 2.859375 -4.0625 C 2.628906 -4.0625 2.410156 -4.019531 2.203125 -3.9375 C 2.003906 -3.863281 1.828125 -3.75 1.671875 -3.59375 C 1.523438 -3.445312 1.410156 -3.273438 1.328125 -3.078125 C 1.242188 -2.878906 1.203125 -2.671875 1.203125 -2.453125 C 1.203125 -2.222656 1.242188 -2.007812 1.328125 -1.8125 C 1.410156 -1.613281 1.523438 -1.441406 1.671875 -1.296875 C 1.828125 -1.148438 2.003906 -1.035156 2.203125 -0.953125 C 2.410156 -0.867188 2.628906 -0.828125 2.859375 -0.828125 C 3.015625 -0.828125 3.179688 -0.859375 3.359375 -0.921875 C 3.535156 -0.984375 3.691406 -1.066406 3.828125 -1.171875 Z M 3.828125 -1.171875 "/></g></g></g><g fill="#f7fbfa" fill-opacity="0.4"><g transform="translate(131.755361, 277.312599)"><g><path d="M 3.65625 -1.453125 L 4.328125 -0.171875 C 4.347656 -0.117188 4.347656 -0.078125 4.328125 -0.046875 C 4.316406 -0.015625 4.285156 0 4.234375 0 L 3.515625 0 C 3.484375 0 3.453125 -0.0078125 3.421875 -0.03125 C 3.390625 -0.0507812 3.367188 -0.078125 3.359375 -0.109375 L 2.84375 -1.15625 C 2.789062 -1.144531 2.734375 -1.132812 2.671875 -1.125 C 2.617188 -1.125 2.566406 -1.125 2.515625 -1.125 L 1.5 -1.125 L 1.5 -0.140625 C 1.5 -0.0976562 1.484375 -0.0625 1.453125 -0.03125 C 1.421875 -0.0078125 1.382812 0 1.34375 0 L 0.734375 0 C 0.691406 0 0.65625 -0.0078125 0.625 -0.03125 C 0.59375 -0.0625 0.578125 -0.0976562 0.578125 -0.140625 L 0.578125 -4.765625 C 0.578125 -4.804688 0.59375 -4.835938 0.625 -4.859375 C 0.65625 -4.890625 0.691406 -4.90625 0.734375 -4.90625 L 0.890625 -4.90625 C 0.984375 -4.90625 1.078125 -4.90625 1.171875 -4.90625 C 1.265625 -4.90625 1.328125 -4.90625 1.359375 -4.90625 L 2.515625 -4.90625 C 2.796875 -4.90625 3.054688 -4.859375 3.296875 -4.765625 C 3.546875 -4.671875 3.757812 -4.535156 3.9375 -4.359375 C 4.113281 -4.191406 4.25 -3.992188 4.34375 -3.765625 C 4.445312 -3.535156 4.5 -3.28125 4.5 -3 C 4.5 -2.664062 4.421875 -2.363281 4.265625 -2.09375 C 4.117188 -1.832031 3.914062 -1.617188 3.65625 -1.453125 Z M 2.453125 -1.890625 C 2.671875 -1.890625 2.863281 -1.9375 3.03125 -2.03125 C 3.207031 -2.125 3.34375 -2.253906 3.4375 -2.421875 C 3.53125 -2.597656 3.578125 -2.789062 3.578125 -3 C 3.578125 -3.164062 3.546875 -3.3125 3.484375 -3.4375 C 3.429688 -3.570312 3.351562 -3.6875 3.25 -3.78125 C 3.15625 -3.882812 3.035156 -3.960938 2.890625 -4.015625 C 2.753906 -4.078125 2.609375 -4.109375 2.453125 -4.109375 L 1.5 -4.109375 L 1.5 -1.890625 Z M 2.453125 -1.890625 "/></g></g></g><g fill="#f7fbfa" fill-opacity="0.4"><g transform="translate(141.929816, 277.312599)"><g><path d="M 1.40625 -4.796875 L 1.40625 -2 C 1.40625 -1.832031 1.429688 -1.675781 1.484375 -1.53125 C 1.546875 -1.382812 1.628906 -1.253906 1.734375 -1.140625 C 1.835938 -1.035156 1.957031 -0.953125 2.09375 -0.890625 C 2.238281 -0.835938 2.394531 -0.8125 2.5625 -0.8125 C 2.726562 -0.8125 2.878906 -0.835938 3.015625 -0.890625 C 3.160156 -0.953125 3.285156 -1.035156 3.390625 -1.140625 C 3.492188 -1.253906 3.570312 -1.382812 3.625 -1.53125 C 3.6875 -1.675781 3.71875 -1.832031 3.71875 -2 L 3.71875 -4.796875 C 3.71875 -4.867188 3.753906 -4.90625 3.828125 -4.90625 L 4.515625 -4.90625 C 4.585938 -4.90625 4.625 -4.867188 4.625 -4.796875 L 4.625 -2 C 4.625 -1.695312 4.570312 -1.414062 4.46875 -1.15625 C 4.375 -0.90625 4.234375 -0.6875 4.046875 -0.5 C 3.867188 -0.3125 3.648438 -0.164062 3.390625 -0.0625 C 3.140625 0.03125 2.863281 0.078125 2.5625 0.078125 C 2.257812 0.078125 1.976562 0.0234375 1.71875 -0.078125 C 1.46875 -0.179688 1.25 -0.320312 1.0625 -0.5 C 0.882812 -0.6875 0.742188 -0.910156 0.640625 -1.171875 C 0.546875 -1.429688 0.5 -1.710938 0.5 -2.015625 L 0.5 -4.796875 C 0.5 -4.867188 0.535156 -4.90625 0.609375 -4.90625 L 1.296875 -4.90625 C 1.367188 -4.90625 1.40625 -4.867188 1.40625 -4.796875 Z M 1.40625 -4.796875 "/></g></g></g><g fill="#f7fbfa" fill-opacity="0.4"><g transform="translate(152.336217, 277.312599)"><g><path d="M 1.5 -4.796875 L 1.5 -0.109375 C 1.5 -0.0351562 1.460938 0 1.390625 0 L 0.6875 0 C 0.613281 0 0.578125 -0.0351562 0.578125 -0.109375 L 0.578125 -4.796875 C 0.578125 -4.867188 0.613281 -4.90625 0.6875 -4.90625 L 1.390625 -4.90625 C 1.460938 -4.90625 1.5 -4.867188 1.5 -4.796875 Z M 1.5 -4.796875 "/></g></g></g><g fill="#f7fbfa" fill-opacity="0.4"><g transform="translate(159.698287, 277.312599)"><g><path d="M 0.1875 -4.25 L 0.1875 -4.765625 C 0.1875 -4.859375 0.234375 -4.90625 0.328125 -4.90625 L 3.6875 -4.90625 C 3.726562 -4.90625 3.757812 -4.890625 3.78125 -4.859375 C 3.8125 -4.835938 3.828125 -4.804688 3.828125 -4.765625 L 3.828125 -4.25 C 3.828125 -4.15625 3.78125 -4.109375 3.6875 -4.109375 L 2.46875 -4.109375 L 2.46875 -0.140625 C 2.46875 -0.046875 2.414062 0 2.3125 0 L 1.6875 0 C 1.59375 0 1.546875 -0.046875 1.546875 -0.140625 L 1.546875 -4.109375 L 0.328125 -4.109375 C 0.285156 -4.109375 0.25 -4.117188 0.21875 -4.140625 C 0.195312 -4.160156 0.1875 -4.195312 0.1875 -4.25 Z M 0.1875 -4.25 "/></g></g></g><g fill="#f7fbfa" fill-opacity="0.4"><g transform="translate(168.999707, 277.312599)"><g><path d="M 5.84375 -0.140625 C 5.84375 -0.0859375 5.828125 -0.0507812 5.796875 -0.03125 C 5.773438 -0.0078125 5.742188 0 5.703125 0 L 5.0625 0 C 5.019531 0 4.984375 -0.0078125 4.953125 -0.03125 C 4.929688 -0.0507812 4.921875 -0.0859375 4.921875 -0.140625 L 4.6875 -2.53125 L 3.234375 -0.0625 C 3.203125 -0.0078125 3.175781 0.0234375 3.15625 0.046875 C 3.144531 0.0664062 3.117188 0.078125 3.078125 0.078125 C 3.035156 0.078125 3.003906 0.0664062 2.984375 0.046875 C 2.960938 0.0234375 2.9375 -0.0078125 2.90625 -0.0625 L 1.453125 -2.53125 L 1.21875 -0.140625 C 1.21875 -0.0859375 1.203125 -0.0507812 1.171875 -0.03125 C 1.148438 -0.0078125 1.117188 0 1.078125 0 L 0.453125 0 C 0.398438 0 0.359375 -0.0078125 0.328125 -0.03125 C 0.304688 -0.0507812 0.300781 -0.0859375 0.3125 -0.140625 L 0.78125 -4.859375 C 0.789062 -4.929688 0.832031 -4.96875 0.90625 -4.96875 L 0.921875 -4.96875 C 0.960938 -4.96875 0.988281 -4.957031 1 -4.9375 C 1.019531 -4.925781 1.039062 -4.898438 1.0625 -4.859375 L 3.078125 -1.453125 L 5.09375 -4.859375 C 5.113281 -4.898438 5.128906 -4.925781 5.140625 -4.9375 C 5.148438 -4.957031 5.175781 -4.96875 5.21875 -4.96875 L 5.234375 -4.96875 C 5.304688 -4.96875 5.347656 -4.929688 5.359375 -4.859375 Z M 5.84375 -0.140625 "/></g></g></g><g fill="#f7fbfa" fill-opacity="0.4"><g transform="translate(180.417665, 277.312599)"><g><path d="M 4.140625 -0.859375 C 4.191406 -0.859375 4.234375 -0.84375 4.265625 -0.8125 C 4.304688 -0.78125 4.328125 -0.738281 4.328125 -0.6875 L 4.328125 -0.140625 C 4.328125 -0.0976562 4.3125 -0.0625 4.28125 -0.03125 C 4.257812 -0.0078125 4.226562 0 4.1875 0 L 0.734375 0 C 0.628906 0 0.578125 -0.046875 0.578125 -0.140625 L 0.578125 -4.75 C 0.578125 -4.851562 0.628906 -4.90625 0.734375 -4.90625 L 4.109375 -4.90625 C 4.160156 -4.90625 4.195312 -4.890625 4.21875 -4.859375 C 4.25 -4.835938 4.265625 -4.804688 4.265625 -4.765625 L 4.265625 -4.1875 C 4.265625 -4.082031 4.210938 -4.03125 4.109375 -4.03125 L 1.5 -4.03125 L 1.5 -2.6875 L 3.546875 -2.6875 C 3.597656 -2.6875 3.640625 -2.671875 3.671875 -2.640625 C 3.703125 -2.617188 3.71875 -2.582031 3.71875 -2.53125 L 3.71875 -2 C 3.71875 -1.957031 3.703125 -1.921875 3.671875 -1.890625 C 3.640625 -1.859375 3.597656 -1.84375 3.546875 -1.84375 L 1.5 -1.84375 L 1.5 -0.859375 Z M 4.140625 -0.859375 "/></g></g></g><g fill="#f7fbfa" fill-opacity="0.4"><g transform="translate(190.356944, 277.312599)"><g><path d="M 4.84375 -4.90625 C 4.914062 -4.90625 4.953125 -4.867188 4.953125 -4.796875 L 4.953125 -0.09375 C 4.953125 -0.0390625 4.9375 -0.00390625 4.90625 0.015625 C 4.882812 0.046875 4.859375 0.0625 4.828125 0.0625 L 4.8125 0.0625 C 4.769531 0.0625 4.734375 0.0507812 4.703125 0.03125 C 4.679688 0.0078125 4.65625 -0.015625 4.625 -0.046875 L 1.5 -3.015625 L 1.5 -0.109375 C 1.5 -0.0351562 1.460938 0 1.390625 0 L 0.6875 0 C 0.613281 0 0.578125 -0.0351562 0.578125 -0.109375 L 0.578125 -4.828125 C 0.578125 -4.867188 0.585938 -4.898438 0.609375 -4.921875 C 0.640625 -4.953125 0.671875 -4.96875 0.703125 -4.96875 L 0.71875 -4.96875 C 0.75 -4.96875 0.773438 -4.953125 0.796875 -4.921875 C 0.828125 -4.898438 0.859375 -4.875 0.890625 -4.84375 L 4.046875 -1.875 L 4.046875 -4.796875 C 4.046875 -4.867188 4.078125 -4.90625 4.140625 -4.90625 Z M 4.84375 -4.90625 "/></g></g></g><g fill="#f7fbfa" fill-opacity="0.4"><g transform="translate(201.169252, 277.312599)"><g><path d="M 0.1875 -4.25 L 0.1875 -4.765625 C 0.1875 -4.859375 0.234375 -4.90625 0.328125 -4.90625 L 3.6875 -4.90625 C 3.726562 -4.90625 3.757812 -4.890625 3.78125 -4.859375 C 3.8125 -4.835938 3.828125 -4.804688 3.828125 -4.765625 L 3.828125 -4.25 C 3.828125 -4.15625 3.78125 -4.109375 3.6875 -4.109375 L 2.46875 -4.109375 L 2.46875 -0.140625 C 2.46875 -0.046875 2.414062 0 2.3125 0 L 1.6875 0 C 1.59375 0 1.546875 -0.046875 1.546875 -0.140625 L 1.546875 -4.109375 L 0.328125 -4.109375 C 0.285156 -4.109375 0.25 -4.117188 0.21875 -4.140625 C 0.195312 -4.160156 0.1875 -4.195312 0.1875 -4.25 Z M 0.1875 -4.25 "/></g></g></g><g fill="#f7fbfa" fill-opacity="0.4"><g transform="translate(210.470666, 277.312599)"><g/></g></g><g fill="#f7fbfa" fill-opacity="0.4"><g transform="translate(217.83273, 277.312599)"><g><path d="M 4.75 -0.15625 C 4.769531 -0.113281 4.769531 -0.078125 4.75 -0.046875 C 4.726562 -0.015625 4.691406 0 4.640625 0 L 3.953125 0 C 3.910156 0 3.875 -0.0078125 3.84375 -0.03125 C 3.820312 -0.0507812 3.800781 -0.0820312 3.78125 -0.125 L 3.578125 -0.59375 L 1.328125 -0.59375 L 1.140625 -0.125 C 1.117188 -0.09375 1.09375 -0.0625 1.0625 -0.03125 C 1.039062 -0.0078125 1.007812 0 0.96875 0 L 0.28125 0 C 0.226562 0 0.191406 -0.015625 0.171875 -0.046875 C 0.148438 -0.078125 0.148438 -0.113281 0.171875 -0.15625 L 2.25 -4.84375 C 2.269531 -4.882812 2.296875 -4.914062 2.328125 -4.9375 C 2.359375 -4.957031 2.394531 -4.96875 2.4375 -4.96875 L 2.46875 -4.96875 C 2.507812 -4.96875 2.546875 -4.953125 2.578125 -4.921875 C 2.609375 -4.898438 2.632812 -4.875 2.65625 -4.84375 Z M 1.65625 -1.375 L 3.265625 -1.375 L 2.453125 -3.328125 Z M 1.65625 -1.375 "/></g></g></g><g fill="#f7fbfa" fill-opacity="0.4"><g transform="translate(228.026508, 277.312599)"><g><path d="M 4.4375 -2.5 C 4.507812 -2.5 4.546875 -2.460938 4.546875 -2.390625 L 4.546875 -0.546875 C 4.546875 -0.515625 4.535156 -0.484375 4.515625 -0.453125 C 4.503906 -0.421875 4.488281 -0.398438 4.46875 -0.390625 C 4.375 -0.316406 4.257812 -0.253906 4.125 -0.203125 C 4 -0.148438 3.863281 -0.101562 3.71875 -0.0625 C 3.582031 -0.0195312 3.4375 0.0078125 3.28125 0.03125 C 3.132812 0.0625 2.992188 0.078125 2.859375 0.078125 C 2.578125 0.078125 2.304688 0.0351562 2.046875 -0.046875 C 1.785156 -0.128906 1.546875 -0.242188 1.328125 -0.390625 C 1.117188 -0.546875 0.9375 -0.726562 0.78125 -0.9375 C 0.625 -1.15625 0.503906 -1.390625 0.421875 -1.640625 C 0.335938 -1.890625 0.296875 -2.160156 0.296875 -2.453125 C 0.296875 -2.734375 0.335938 -3 0.421875 -3.25 C 0.503906 -3.507812 0.625 -3.742188 0.78125 -3.953125 C 0.9375 -4.160156 1.117188 -4.34375 1.328125 -4.5 C 1.546875 -4.65625 1.78125 -4.769531 2.03125 -4.84375 C 2.289062 -4.925781 2.566406 -4.96875 2.859375 -4.96875 C 3.023438 -4.96875 3.195312 -4.945312 3.375 -4.90625 C 3.5625 -4.875 3.738281 -4.820312 3.90625 -4.75 C 4.070312 -4.675781 4.222656 -4.582031 4.359375 -4.46875 C 4.390625 -4.445312 4.40625 -4.414062 4.40625 -4.375 C 4.414062 -4.34375 4.410156 -4.3125 4.390625 -4.28125 L 4.046875 -3.734375 C 4.015625 -3.703125 3.976562 -3.679688 3.9375 -3.671875 C 3.90625 -3.671875 3.875 -3.6875 3.84375 -3.71875 C 3.75 -3.800781 3.644531 -3.867188 3.53125 -3.921875 C 3.414062 -3.972656 3.300781 -4.007812 3.1875 -4.03125 C 3.070312 -4.0625 2.960938 -4.078125 2.859375 -4.078125 C 2.628906 -4.078125 2.410156 -4.035156 2.203125 -3.953125 C 2.003906 -3.867188 1.828125 -3.75 1.671875 -3.59375 C 1.523438 -3.445312 1.410156 -3.273438 1.328125 -3.078125 C 1.242188 -2.890625 1.203125 -2.679688 1.203125 -2.453125 C 1.203125 -2.222656 1.242188 -2.003906 1.328125 -1.796875 C 1.410156 -1.597656 1.523438 -1.421875 1.671875 -1.265625 C 1.816406 -1.117188 1.988281 -1.003906 2.1875 -0.921875 C 2.394531 -0.835938 2.617188 -0.796875 2.859375 -0.796875 C 2.941406 -0.796875 3.03125 -0.804688 3.125 -0.828125 C 3.226562 -0.847656 3.328125 -0.875 3.421875 -0.90625 C 3.523438 -0.945312 3.609375 -0.988281 3.671875 -1.03125 L 3.671875 -1.734375 L 2.84375 -1.734375 C 2.769531 -1.734375 2.734375 -1.769531 2.734375 -1.84375 L 2.734375 -2.390625 C 2.734375 -2.460938 2.769531 -2.5 2.84375 -2.5 Z M 4.4375 -2.5 "/></g></g></g><g fill="#f7fbfa" fill-opacity="0.4"><g transform="translate(238.271831, 277.312599)"><g><path d="M 4.140625 -0.859375 C 4.191406 -0.859375 4.234375 -0.84375 4.265625 -0.8125 C 4.304688 -0.78125 4.328125 -0.738281 4.328125 -0.6875 L 4.328125 -0.140625 C 4.328125 -0.0976562 4.3125 -0.0625 4.28125 -0.03125 C 4.257812 -0.0078125 4.226562 0 4.1875 0 L 0.734375 0 C 0.628906 0 0.578125 -0.046875 0.578125 -0.140625 L 0.578125 -4.75 C 0.578125 -4.851562 0.628906 -4.90625 0.734375 -4.90625 L 4.109375 -4.90625 C 4.160156 -4.90625 4.195312 -4.890625 4.21875 -4.859375 C 4.25 -4.835938 4.265625 -4.804688 4.265625 -4.765625 L 4.265625 -4.1875 C 4.265625 -4.082031 4.210938 -4.03125 4.109375 -4.03125 L 1.5 -4.03125 L 1.5 -2.6875 L 3.546875 -2.6875 C 3.597656 -2.6875 3.640625 -2.671875 3.671875 -2.640625 C 3.703125 -2.617188 3.71875 -2.582031 3.71875 -2.53125 L 3.71875 -2 C 3.71875 -1.957031 3.703125 -1.921875 3.671875 -1.890625 C 3.640625 -1.859375 3.597656 -1.84375 3.546875 -1.84375 L 1.5 -1.84375 L 1.5 -0.859375 Z M 4.140625 -0.859375 "/></g></g></g><g fill="#f7fbfa" fill-opacity="0.4"><g transform="translate(248.211104, 277.312599)"><g><path d="M 4.84375 -4.90625 C 4.914062 -4.90625 4.953125 -4.867188 4.953125 -4.796875 L 4.953125 -0.09375 C 4.953125 -0.0390625 4.9375 -0.00390625 4.90625 0.015625 C 4.882812 0.046875 4.859375 0.0625 4.828125 0.0625 L 4.8125 0.0625 C 4.769531 0.0625 4.734375 0.0507812 4.703125 0.03125 C 4.679688 0.0078125 4.65625 -0.015625 4.625 -0.046875 L 1.5 -3.015625 L 1.5 -0.109375 C 1.5 -0.0351562 1.460938 0 1.390625 0 L 0.6875 0 C 0.613281 0 0.578125 -0.0351562 0.578125 -0.109375 L 0.578125 -4.828125 C 0.578125 -4.867188 0.585938 -4.898438 0.609375 -4.921875 C 0.640625 -4.953125 0.671875 -4.96875 0.703125 -4.96875 L 0.71875 -4.96875 C 0.75 -4.96875 0.773438 -4.953125 0.796875 -4.921875 C 0.828125 -4.898438 0.859375 -4.875 0.890625 -4.84375 L 4.046875 -1.875 L 4.046875 -4.796875 C 4.046875 -4.867188 4.078125 -4.90625 4.140625 -4.90625 Z M 4.84375 -4.90625 "/></g></g></g><g fill="#f7fbfa" fill-opacity="0.4"><g transform="translate(259.023413, 277.312599)"><g><path d="M 3.828125 -1.171875 C 3.867188 -1.203125 3.910156 -1.21875 3.953125 -1.21875 C 3.992188 -1.21875 4.023438 -1.203125 4.046875 -1.171875 L 4.40625 -0.609375 C 4.425781 -0.585938 4.429688 -0.554688 4.421875 -0.515625 C 4.410156 -0.484375 4.382812 -0.453125 4.34375 -0.421875 C 4.21875 -0.328125 4.070312 -0.238281 3.90625 -0.15625 C 3.738281 -0.0820312 3.5625 -0.0234375 3.375 0.015625 C 3.195312 0.0546875 3.023438 0.078125 2.859375 0.078125 C 2.578125 0.078125 2.304688 0.0351562 2.046875 -0.046875 C 1.785156 -0.128906 1.546875 -0.242188 1.328125 -0.390625 C 1.117188 -0.546875 0.9375 -0.726562 0.78125 -0.9375 C 0.625 -1.15625 0.503906 -1.390625 0.421875 -1.640625 C 0.335938 -1.890625 0.296875 -2.160156 0.296875 -2.453125 C 0.296875 -2.734375 0.335938 -3 0.421875 -3.25 C 0.503906 -3.507812 0.625 -3.742188 0.78125 -3.953125 C 0.9375 -4.160156 1.117188 -4.335938 1.328125 -4.484375 C 1.546875 -4.640625 1.785156 -4.757812 2.046875 -4.84375 C 2.304688 -4.925781 2.578125 -4.96875 2.859375 -4.96875 C 3.023438 -4.96875 3.195312 -4.945312 3.375 -4.90625 C 3.550781 -4.875 3.722656 -4.816406 3.890625 -4.734375 C 4.066406 -4.660156 4.222656 -4.570312 4.359375 -4.46875 C 4.398438 -4.4375 4.421875 -4.398438 4.421875 -4.359375 C 4.429688 -4.328125 4.425781 -4.300781 4.40625 -4.28125 L 4.046875 -3.71875 C 4.023438 -3.6875 3.992188 -3.664062 3.953125 -3.65625 C 3.921875 -3.65625 3.878906 -3.675781 3.828125 -3.71875 C 3.691406 -3.832031 3.535156 -3.914062 3.359375 -3.96875 C 3.191406 -4.03125 3.023438 -4.0625 2.859375 -4.0625 C 2.628906 -4.0625 2.410156 -4.019531 2.203125 -3.9375 C 2.003906 -3.863281 1.828125 -3.75 1.671875 -3.59375 C 1.523438 -3.445312 1.410156 -3.273438 1.328125 -3.078125 C 1.242188 -2.878906 1.203125 -2.671875 1.203125 -2.453125 C 1.203125 -2.222656 1.242188 -2.007812 1.328125 -1.8125 C 1.410156 -1.613281 1.523438 -1.441406 1.671875 -1.296875 C 1.828125 -1.148438 2.003906 -1.035156 2.203125 -0.953125 C 2.410156 -0.867188 2.628906 -0.828125 2.859375 -0.828125 C 3.015625 -0.828125 3.179688 -0.859375 3.359375 -0.921875 C 3.535156 -0.984375 3.691406 -1.066406 3.828125 -1.171875 Z M 3.828125 -1.171875 "/></g></g></g><g fill="#f7fbfa" fill-opacity="0.4"><g transform="translate(269.056116, 277.312599)"><g><path d="M 4.125 -4.90625 C 4.175781 -4.90625 4.207031 -4.890625 4.21875 -4.859375 C 4.238281 -4.828125 4.238281 -4.785156 4.21875 -4.734375 L 2.609375 -1.9375 L 2.609375 -0.140625 C 2.609375 -0.046875 2.5625 0 2.46875 0 L 1.84375 0 C 1.75 0 1.703125 -0.046875 1.703125 -0.140625 L 1.703125 -1.953125 L 0.09375 -4.734375 C 0.0703125 -4.796875 0.0703125 -4.835938 0.09375 -4.859375 C 0.113281 -4.890625 0.148438 -4.90625 0.203125 -4.90625 L 0.921875 -4.90625 C 0.960938 -4.90625 1 -4.894531 1.03125 -4.875 C 1.0625 -4.851562 1.082031 -4.820312 1.09375 -4.78125 L 2.15625 -2.875 L 3.21875 -4.78125 C 3.257812 -4.863281 3.316406 -4.90625 3.390625 -4.90625 Z M 4.125 -4.90625 "/></g></g></g><g fill="#f7fbfa" fill-opacity="1"><g transform="translate(101.608922, 277.312599)"><g><path d="M 3.65625 -1.453125 L 4.328125 -0.171875 C 4.347656 -0.117188 4.347656 -0.078125 4.328125 -0.046875 C 4.316406 -0.015625 4.285156 0 4.234375 0 L 3.515625 0 C 3.484375 0 3.453125 -0.0078125 3.421875 -0.03125 C 3.390625 -0.0507812 3.367188 -0.078125 3.359375 -0.109375 L 2.84375 -1.15625 C 2.789062 -1.144531 2.734375 -1.132812 2.671875 -1.125 C 2.617188 -1.125 2.566406 -1.125 2.515625 -1.125 L 1.5 -1.125 L 1.5 -0.140625 C 1.5 -0.0976562 1.484375 -0.0625 1.453125 -0.03125 C 1.421875 -0.0078125 1.382812 0 1.34375 0 L 0.734375 0 C 0.691406 0 0.65625 -0.0078125 0.625 -0.03125 C 0.59375 -0.0625 0.578125 -0.0976562 0.578125 -0.140625 L 0.578125 -4.765625 C 0.578125 -4.804688 0.59375 -4.835938 0.625 -4.859375 C 0.65625 -4.890625 0.691406 -4.90625 0.734375 -4.90625 L 0.890625 -4.90625 C 0.984375 -4.90625 1.078125 -4.90625 1.171875 -4.90625 C 1.265625 -4.90625 1.328125 -4.90625 1.359375 -4.90625 L 2.515625 -4.90625 C 2.796875 -4.90625 3.054688 -4.859375 3.296875 -4.765625 C 3.546875 -4.671875 3.757812 -4.535156 3.9375 -4.359375 C 4.113281 -4.191406 4.25 -3.992188 4.34375 -3.765625 C 4.445312 -3.535156 4.5 -3.28125 4.5 -3 C 4.5 -2.664062 4.421875 -2.363281 4.265625 -2.09375 C 4.117188 -1.832031 3.914062 -1.617188 3.65625 -1.453125 Z M 2.453125 -1.890625 C 2.671875 -1.890625 2.863281 -1.9375 3.03125 -2.03125 C 3.207031 -2.125 3.34375 -2.253906 3.4375 -2.421875 C 3.53125 -2.597656 3.578125 -2.789062 3.578125 -3 C 3.578125 -3.164062 3.546875 -3.3125 3.484375 -3.4375 C 3.429688 -3.570312 3.351562 -3.6875 3.25 -3.78125 C 3.15625 -3.882812 3.035156 -3.960938 2.890625 -4.015625 C 2.753906 -4.078125 2.609375 -4.109375 2.453125 -4.109375 L 1.5 -4.109375 L 1.5 -1.890625 Z M 2.453125 -1.890625 "/></g></g></g><g fill="#f7fbfa" fill-opacity="1"><g transform="translate(111.783376, 277.312599)"><g><path d="M 4.140625 -0.859375 C 4.191406 -0.859375 4.234375 -0.84375 4.265625 -0.8125 C 4.304688 -0.78125 4.328125 -0.738281 4.328125 -0.6875 L 4.328125 -0.140625 C 4.328125 -0.0976562 4.3125 -0.0625 4.28125 -0.03125 C 4.257812 -0.0078125 4.226562 0 4.1875 0 L 0.734375 0 C 0.628906 0 0.578125 -0.046875 0.578125 -0.140625 L 0.578125 -4.75 C 0.578125 -4.851562 0.628906 -4.90625 0.734375 -4.90625 L 4.109375 -4.90625 C 4.160156 -4.90625 4.195312 -4.890625 4.21875 -4.859375 C 4.25 -4.835938 4.265625 -4.804688 4.265625 -4.765625 L 4.265625 -4.1875 C 4.265625 -4.082031 4.210938 -4.03125 4.109375 -4.03125 L 1.5 -4.03125 L 1.5 -2.6875 L 3.546875 -2.6875 C 3.597656 -2.6875 3.640625 -2.671875 3.671875 -2.640625 C 3.703125 -2.617188 3.71875 -2.582031 3.71875 -2.53125 L 3.71875 -2 C 3.71875 -1.957031 3.703125 -1.921875 3.671875 -1.890625 C 3.640625 -1.859375 3.597656 -1.84375 3.546875 -1.84375 L 1.5 -1.84375 L 1.5 -0.859375 Z M 4.140625 -0.859375 "/></g></g></g><g fill="#f7fbfa" fill-opacity="1"><g transform="translate(121.722654, 277.312599)"><g><path d="M 3.828125 -1.171875 C 3.867188 -1.203125 3.910156 -1.21875 3.953125 -1.21875 C 3.992188 -1.21875 4.023438 -1.203125 4.046875 -1.171875 L 4.40625 -0.609375 C 4.425781 -0.585938 4.429688 -0.554688 4.421875 -0.515625 C 4.410156 -0.484375 4.382812 -0.453125 4.34375 -0.421875 C 4.21875 -0.328125 4.070312 -0.238281 3.90625 -0.15625 C 3.738281 -0.0820312 3.5625 -0.0234375 3.375 0.015625 C 3.195312 0.0546875 3.023438 0.078125 2.859375 0.078125 C 2.578125 0.078125 2.304688 0.0351562 2.046875 -0.046875 C 1.785156 -0.128906 1.546875 -0.242188 1.328125 -0.390625 C 1.117188 -0.546875 0.9375 -0.726562 0.78125 -0.9375 C 0.625 -1.15625 0.503906 -1.390625 0.421875 -1.640625 C 0.335938 -1.890625 0.296875 -2.160156 0.296875 -2.453125 C 0.296875 -2.734375 0.335938 -3 0.421875 -3.25 C 0.503906 -3.507812 0.625 -3.742188 0.78125 -3.953125 C 0.9375 -4.160156 1.117188 -4.335938 1.328125 -4.484375 C 1.546875 -4.640625 1.785156 -4.757812 2.046875 -4.84375 C 2.304688 -4.925781 2.578125 -4.96875 2.859375 -4.96875 C 3.023438 -4.96875 3.195312 -4.945312 3.375 -4.90625 C 3.550781 -4.875 3.722656 -4.816406 3.890625 -4.734375 C 4.066406 -4.660156 4.222656 -4.570312 4.359375 -4.46875 C 4.398438 -4.4375 4.421875 -4.398438 4.421875 -4.359375 C 4.429688 -4.328125 4.425781 -4.300781 4.40625 -4.28125 L 4.046875 -3.71875 C 4.023438 -3.6875 3.992188 -3.664062 3.953125 -3.65625 C 3.921875 -3.65625 3.878906 -3.675781 3.828125 -3.71875 C 3.691406 -3.832031 3.535156 -3.914062 3.359375 -3.96875 C 3.191406 -4.03125 3.023438 -4.0625 2.859375 -4.0625 C 2.628906 -4.0625 2.410156 -4.019531 2.203125 -3.9375 C 2.003906 -3.863281 1.828125 -3.75 1.671875 -3.59375 C 1.523438 -3.445312 1.410156 -3.273438 1.328125 -3.078125 C 1.242188 -2.878906 1.203125 -2.671875 1.203125 -2.453125 C 1.203125 -2.222656 1.242188 -2.007812 1.328125 -1.8125 C 1.410156 -1.613281 1.523438 -1.441406 1.671875 -1.296875 C 1.828125 -1.148438 2.003906 -1.035156 2.203125 -0.953125 C 2.410156 -0.867188 2.628906 -0.828125 2.859375 -0.828125 C 3.015625 -0.828125 3.179688 -0.859375 3.359375 -0.921875 C 3.535156 -0.984375 3.691406 -1.066406 3.828125 -1.171875 Z M 3.828125 -1.171875 "/></g></g></g><g fill="#f7fbfa" fill-opacity="1"><g transform="translate(131.755361, 277.312599)"><g><path d="M 3.65625 -1.453125 L 4.328125 -0.171875 C 4.347656 -0.117188 4.347656 -0.078125 4.328125 -0.046875 C 4.316406 -0.015625 4.285156 0 4.234375 0 L 3.515625 0 C 3.484375 0 3.453125 -0.0078125 3.421875 -0.03125 C 3.390625 -0.0507812 3.367188 -0.078125 3.359375 -0.109375 L 2.84375 -1.15625 C 2.789062 -1.144531 2.734375 -1.132812 2.671875 -1.125 C 2.617188 -1.125 2.566406 -1.125 2.515625 -1.125 L 1.5 -1.125 L 1.5 -0.140625 C 1.5 -0.0976562 1.484375 -0.0625 1.453125 -0.03125 C 1.421875 -0.0078125 1.382812 0 1.34375 0 L 0.734375 0 C 0.691406 0 0.65625 -0.0078125 0.625 -0.03125 C 0.59375 -0.0625 0.578125 -0.0976562 0.578125 -0.140625 L 0.578125 -4.765625 C 0.578125 -4.804688 0.59375 -4.835938 0.625 -4.859375 C 0.65625 -4.890625 0.691406 -4.90625 0.734375 -4.90625 L 0.890625 -4.90625 C 0.984375 -4.90625 1.078125 -4.90625 1.171875 -4.90625 C 1.265625 -4.90625 1.328125 -4.90625 1.359375 -4.90625 L 2.515625 -4.90625 C 2.796875 -4.90625 3.054688 -4.859375 3.296875 -4.765625 C 3.546875 -4.671875 3.757812 -4.535156 3.9375 -4.359375 C 4.113281 -4.191406 4.25 -3.992188 4.34375 -3.765625 C 4.445312 -3.535156 4.5 -3.28125 4.5 -3 C 4.5 -2.664062 4.421875 -2.363281 4.265625 -2.09375 C 4.117188 -1.832031 3.914062 -1.617188 3.65625 -1.453125 Z M 2.453125 -1.890625 C 2.671875 -1.890625 2.863281 -1.9375 3.03125 -2.03125 C 3.207031 -2.125 3.34375 -2.253906 3.4375 -2.421875 C 3.53125 -2.597656 3.578125 -2.789062 3.578125 -3 C 3.578125 -3.164062 3.546875 -3.3125 3.484375 -3.4375 C 3.429688 -3.570312 3.351562 -3.6875 3.25 -3.78125 C 3.15625 -3.882812 3.035156 -3.960938 2.890625 -4.015625 C 2.753906 -4.078125 2.609375 -4.109375 2.453125 -4.109375 L 1.5 -4.109375 L 1.5 -1.890625 Z M 2.453125 -1.890625 "/></g></g></g><g fill="#f7fbfa" fill-opacity="1"><g transform="translate(141.929816, 277.312599)"><g><path d="M 1.40625 -4.796875 L 1.40625 -2 C 1.40625 -1.832031 1.429688 -1.675781 1.484375 -1.53125 C 1.546875 -1.382812 1.628906 -1.253906 1.734375 -1.140625 C 1.835938 -1.035156 1.957031 -0.953125 2.09375 -0.890625 C 2.238281 -0.835938 2.394531 -0.8125 2.5625 -0.8125 C 2.726562 -0.8125 2.878906 -0.835938 3.015625 -0.890625 C 3.160156 -0.953125 3.285156 -1.035156 3.390625 -1.140625 C 3.492188 -1.253906 3.570312 -1.382812 3.625 -1.53125 C 3.6875 -1.675781 3.71875 -1.832031 3.71875 -2 L 3.71875 -4.796875 C 3.71875 -4.867188 3.753906 -4.90625 3.828125 -4.90625 L 4.515625 -4.90625 C 4.585938 -4.90625 4.625 -4.867188 4.625 -4.796875 L 4.625 -2 C 4.625 -1.695312 4.570312 -1.414062 4.46875 -1.15625 C 4.375 -0.90625 4.234375 -0.6875 4.046875 -0.5 C 3.867188 -0.3125 3.648438 -0.164062 3.390625 -0.0625 C 3.140625 0.03125 2.863281 0.078125 2.5625 0.078125 C 2.257812 0.078125 1.976562 0.0234375 1.71875 -0.078125 C 1.46875 -0.179688 1.25 -0.320312 1.0625 -0.5 C 0.882812 -0.6875 0.742188 -0.910156 0.640625 -1.171875 C 0.546875 -1.429688 0.5 -1.710938 0.5 -2.015625 L 0.5 -4.796875 C 0.5 -4.867188 0.535156 -4.90625 0.609375 -4.90625 L 1.296875 -4.90625 C 1.367188 -4.90625 1.40625 -4.867188 1.40625 -4.796875 Z M 1.40625 -4.796875 "/></g></g></g><g fill="#f7fbfa" fill-opacity="1"><g transform="translate(152.336217, 277.312599)"><g><path d="M 1.5 -4.796875 L 1.5 -0.109375 C 1.5 -0.0351562 1.460938 0 1.390625 0 L 0.6875 0 C 0.613281 0 0.578125 -0.0351562 0.578125 -0.109375 L 0.578125 -4.796875 C 0.578125 -4.867188 0.613281 -4.90625 0.6875 -4.90625 L 1.390625 -4.90625 C 1.460938 -4.90625 1.5 -4.867188 1.5 -4.796875 Z M 1.5 -4.796875 "/></g></g></g><g fill="#f7fbfa" fill-opacity="1"><g transform="translate(159.698287, 277.312599)"><g><path d="M 0.1875 -4.25 L 0.1875 -4.765625 C 0.1875 -4.859375 0.234375 -4.90625 0.328125 -4.90625 L 3.6875 -4.90625 C 3.726562 -4.90625 3.757812 -4.890625 3.78125 -4.859375 C 3.8125 -4.835938 3.828125 -4.804688 3.828125 -4.765625 L 3.828125 -4.25 C 3.828125 -4.15625 3.78125 -4.109375 3.6875 -4.109375 L 2.46875 -4.109375 L 2.46875 -0.140625 C 2.46875 -0.046875 2.414062 0 2.3125 0 L 1.6875 0 C 1.59375 0 1.546875 -0.046875 1.546875 -0.140625 L 1.546875 -4.109375 L 0.328125 -4.109375 C 0.285156 -4.109375 0.25 -4.117188 0.21875 -4.140625 C 0.195312 -4.160156 0.1875 -4.195312 0.1875 -4.25 Z M 0.1875 -4.25 "/></g></g></g><g fill="#f7fbfa" fill-opacity="1"><g transform="translate(168.999707, 277.312599)"><g><path d="M 5.84375 -0.140625 C 5.84375 -0.0859375 5.828125 -0.0507812 5.796875 -0.03125 C 5.773438 -0.0078125 5.742188 0 5.703125 0 L 5.0625 0 C 5.019531 0 4.984375 -0.0078125 4.953125 -0.03125 C 4.929688 -0.0507812 4.921875 -0.0859375 4.921875 -0.140625 L 4.6875 -2.53125 L 3.234375 -0.0625 C 3.203125 -0.0078125 3.175781 0.0234375 3.15625 0.046875 C 3.144531 0.0664062 3.117188 0.078125 3.078125 0.078125 C 3.035156 0.078125 3.003906 0.0664062 2.984375 0.046875 C 2.960938 0.0234375 2.9375 -0.0078125 2.90625 -0.0625 L 1.453125 -2.53125 L 1.21875 -0.140625 C 1.21875 -0.0859375 1.203125 -0.0507812 1.171875 -0.03125 C 1.148438 -0.0078125 1.117188 0 1.078125 0 L 0.453125 0 C 0.398438 0 0.359375 -0.0078125 0.328125 -0.03125 C 0.304688 -0.0507812 0.300781 -0.0859375 0.3125 -0.140625 L 0.78125 -4.859375 C 0.789062 -4.929688 0.832031 -4.96875 0.90625 -4.96875 L 0.921875 -4.96875 C 0.960938 -4.96875 0.988281 -4.957031 1 -4.9375 C 1.019531 -4.925781 1.039062 -4.898438 1.0625 -4.859375 L 3.078125 -1.453125 L 5.09375 -4.859375 C 5.113281 -4.898438 5.128906 -4.925781 5.140625 -4.9375 C 5.148438 -4.957031 5.175781 -4.96875 5.21875 -4.96875 L 5.234375 -4.96875 C 5.304688 -4.96875 5.347656 -4.929688 5.359375 -4.859375 Z M 5.84375 -0.140625 "/></g></g></g><g fill="#f7fbfa" fill-opacity="1"><g transform="translate(180.417665, 277.312599)"><g><path d="M 4.140625 -0.859375 C 4.191406 -0.859375 4.234375 -0.84375 4.265625 -0.8125 C 4.304688 -0.78125 4.328125 -0.738281 4.328125 -0.6875 L 4.328125 -0.140625 C 4.328125 -0.0976562 4.3125 -0.0625 4.28125 -0.03125 C 4.257812 -0.0078125 4.226562 0 4.1875 0 L 0.734375 0 C 0.628906 0 0.578125 -0.046875 0.578125 -0.140625 L 0.578125 -4.75 C 0.578125 -4.851562 0.628906 -4.90625 0.734375 -4.90625 L 4.109375 -4.90625 C 4.160156 -4.90625 4.195312 -4.890625 4.21875 -4.859375 C 4.25 -4.835938 4.265625 -4.804688 4.265625 -4.765625 L 4.265625 -4.1875 C 4.265625 -4.082031 4.210938 -4.03125 4.109375 -4.03125 L 1.5 -4.03125 L 1.5 -2.6875 L 3.546875 -2.6875 C 3.597656 -2.6875 3.640625 -2.671875 3.671875 -2.640625 C 3.703125 -2.617188 3.71875 -2.582031 3.71875 -2.53125 L 3.71875 -2 C 3.71875 -1.957031 3.703125 -1.921875 3.671875 -1.890625 C 3.640625 -1.859375 3.597656 -1.84375 3.546875 -1.84375 L 1.5 -1.84375 L 1.5 -0.859375 Z M 4.140625 -0.859375 "/></g></g></g><g fill="#f7fbfa" fill-opacity="1"><g transform="translate(190.356944, 277.312599)"><g><path d="M 4.84375 -4.90625 C 4.914062 -4.90625 4.953125 -4.867188 4.953125 -4.796875 L 4.953125 -0.09375 C 4.953125 -0.0390625 4.9375 -0.00390625 4.90625 0.015625 C 4.882812 0.046875 4.859375 0.0625 4.828125 0.0625 L 4.8125 0.0625 C 4.769531 0.0625 4.734375 0.0507812 4.703125 0.03125 C 4.679688 0.0078125 4.65625 -0.015625 4.625 -0.046875 L 1.5 -3.015625 L 1.5 -0.109375 C 1.5 -0.0351562 1.460938 0 1.390625 0 L 0.6875 0 C 0.613281 0 0.578125 -0.0351562 0.578125 -0.109375 L 0.578125 -4.828125 C 0.578125 -4.867188 0.585938 -4.898438 0.609375 -4.921875 C 0.640625 -4.953125 0.671875 -4.96875 0.703125 -4.96875 L 0.71875 -4.96875 C 0.75 -4.96875 0.773438 -4.953125 0.796875 -4.921875 C 0.828125 -4.898438 0.859375 -4.875 0.890625 -4.84375 L 4.046875 -1.875 L 4.046875 -4.796875 C 4.046875 -4.867188 4.078125 -4.90625 4.140625 -4.90625 Z M 4.84375 -4.90625 "/></g></g></g><g fill="#f7fbfa" fill-opacity="1"><g transform="translate(201.169252, 277.312599)"><g><path d="M 0.1875 -4.25 L 0.1875 -4.765625 C 0.1875 -4.859375 0.234375 -4.90625 0.328125 -4.90625 L 3.6875 -4.90625 C 3.726562 -4.90625 3.757812 -4.890625 3.78125 -4.859375 C 3.8125 -4.835938 3.828125 -4.804688 3.828125 -4.765625 L 3.828125 -4.25 C 3.828125 -4.15625 3.78125 -4.109375 3.6875 -4.109375 L 2.46875 -4.109375 L 2.46875 -0.140625 C 2.46875 -0.046875 2.414062 0 2.3125 0 L 1.6875 0 C 1.59375 0 1.546875 -0.046875 1.546875 -0.140625 L 1.546875 -4.109375 L 0.328125 -4.109375 C 0.285156 -4.109375 0.25 -4.117188 0.21875 -4.140625 C 0.195312 -4.160156 0.1875 -4.195312 0.1875 -4.25 Z M 0.1875 -4.25 "/></g></g></g><g fill="#f7fbfa" fill-opacity="1"><g transform="translate(210.470666, 277.312599)"><g/></g></g><g fill="#f7fbfa" fill-opacity="1"><g transform="translate(217.83273, 277.312599)"><g><path d="M 4.75 -0.15625 C 4.769531 -0.113281 4.769531 -0.078125 4.75 -0.046875 C 4.726562 -0.015625 4.691406 0 4.640625 0 L 3.953125 0 C 3.910156 0 3.875 -0.0078125 3.84375 -0.03125 C 3.820312 -0.0507812 3.800781 -0.0820312 3.78125 -0.125 L 3.578125 -0.59375 L 1.328125 -0.59375 L 1.140625 -0.125 C 1.117188 -0.09375 1.09375 -0.0625 1.0625 -0.03125 C 1.039062 -0.0078125 1.007812 0 0.96875 0 L 0.28125 0 C 0.226562 0 0.191406 -0.015625 0.171875 -0.046875 C 0.148438 -0.078125 0.148438 -0.113281 0.171875 -0.15625 L 2.25 -4.84375 C 2.269531 -4.882812 2.296875 -4.914062 2.328125 -4.9375 C 2.359375 -4.957031 2.394531 -4.96875 2.4375 -4.96875 L 2.46875 -4.96875 C 2.507812 -4.96875 2.546875 -4.953125 2.578125 -4.921875 C 2.609375 -4.898438 2.632812 -4.875 2.65625 -4.84375 Z M 1.65625 -1.375 L 3.265625 -1.375 L 2.453125 -3.328125 Z M 1.65625 -1.375 "/></g></g></g><g fill="#f7fbfa" fill-opacity="1"><g transform="translate(228.026508, 277.312599)"><g><path d="M 4.4375 -2.5 C 4.507812 -2.5 4.546875 -2.460938 4.546875 -2.390625 L 4.546875 -0.546875 C 4.546875 -0.515625 4.535156 -0.484375 4.515625 -0.453125 C 4.503906 -0.421875 4.488281 -0.398438 4.46875 -0.390625 C 4.375 -0.316406 4.257812 -0.253906 4.125 -0.203125 C 4 -0.148438 3.863281 -0.101562 3.71875 -0.0625 C 3.582031 -0.0195312 3.4375 0.0078125 3.28125 0.03125 C 3.132812 0.0625 2.992188 0.078125 2.859375 0.078125 C 2.578125 0.078125 2.304688 0.0351562 2.046875 -0.046875 C 1.785156 -0.128906 1.546875 -0.242188 1.328125 -0.390625 C 1.117188 -0.546875 0.9375 -0.726562 0.78125 -0.9375 C 0.625 -1.15625 0.503906 -1.390625 0.421875 -1.640625 C 0.335938 -1.890625 0.296875 -2.160156 0.296875 -2.453125 C 0.296875 -2.734375 0.335938 -3 0.421875 -3.25 C 0.503906 -3.507812 0.625 -3.742188 0.78125 -3.953125 C 0.9375 -4.160156 1.117188 -4.34375 1.328125 -4.5 C 1.546875 -4.65625 1.78125 -4.769531 2.03125 -4.84375 C 2.289062 -4.925781 2.566406 -4.96875 2.859375 -4.96875 C 3.023438 -4.96875 3.195312 -4.945312 3.375 -4.90625 C 3.5625 -4.875 3.738281 -4.820312 3.90625 -4.75 C 4.070312 -4.675781 4.222656 -4.582031 4.359375 -4.46875 C 4.390625 -4.445312 4.40625 -4.414062 4.40625 -4.375 C 4.414062 -4.34375 4.410156 -4.3125 4.390625 -4.28125 L 4.046875 -3.734375 C 4.015625 -3.703125 3.976562 -3.679688 3.9375 -3.671875 C 3.90625 -3.671875 3.875 -3.6875 3.84375 -3.71875 C 3.75 -3.800781 3.644531 -3.867188 3.53125 -3.921875 C 3.414062 -3.972656 3.300781 -4.007812 3.1875 -4.03125 C 3.070312 -4.0625 2.960938 -4.078125 2.859375 -4.078125 C 2.628906 -4.078125 2.410156 -4.035156 2.203125 -3.953125 C 2.003906 -3.867188 1.828125 -3.75 1.671875 -3.59375 C 1.523438 -3.445312 1.410156 -3.273438 1.328125 -3.078125 C 1.242188 -2.890625 1.203125 -2.679688 1.203125 -2.453125 C 1.203125 -2.222656 1.242188 -2.003906 1.328125 -1.796875 C 1.410156 -1.597656 1.523438 -1.421875 1.671875 -1.265625 C 1.816406 -1.117188 1.988281 -1.003906 2.1875 -0.921875 C 2.394531 -0.835938 2.617188 -0.796875 2.859375 -0.796875 C 2.941406 -0.796875 3.03125 -0.804688 3.125 -0.828125 C 3.226562 -0.847656 3.328125 -0.875 3.421875 -0.90625 C 3.523438 -0.945312 3.609375 -0.988281 3.671875 -1.03125 L 3.671875 -1.734375 L 2.84375 -1.734375 C 2.769531 -1.734375 2.734375 -1.769531 2.734375 -1.84375 L 2.734375 -2.390625 C 2.734375 -2.460938 2.769531 -2.5 2.84375 -2.5 Z M 4.4375 -2.5 "/></g></g></g><g fill="#f7fbfa" fill-opacity="1"><g transform="translate(238.271831, 277.312599)"><g><path d="M 4.140625 -0.859375 C 4.191406 -0.859375 4.234375 -0.84375 4.265625 -0.8125 C 4.304688 -0.78125 4.328125 -0.738281 4.328125 -0.6875 L 4.328125 -0.140625 C 4.328125 -0.0976562 4.3125 -0.0625 4.28125 -0.03125 C 4.257812 -0.0078125 4.226562 0 4.1875 0 L 0.734375 0 C 0.628906 0 0.578125 -0.046875 0.578125 -0.140625 L 0.578125 -4.75 C 0.578125 -4.851562 0.628906 -4.90625 0.734375 -4.90625 L 4.109375 -4.90625 C 4.160156 -4.90625 4.195312 -4.890625 4.21875 -4.859375 C 4.25 -4.835938 4.265625 -4.804688 4.265625 -4.765625 L 4.265625 -4.1875 C 4.265625 -4.082031 4.210938 -4.03125 4.109375 -4.03125 L 1.5 -4.03125 L 1.5 -2.6875 L 3.546875 -2.6875 C 3.597656 -2.6875 3.640625 -2.671875 3.671875 -2.640625 C 3.703125 -2.617188 3.71875 -2.582031 3.71875 -2.53125 L 3.71875 -2 C 3.71875 -1.957031 3.703125 -1.921875 3.671875 -1.890625 C 3.640625 -1.859375 3.597656 -1.84375 3.546875 -1.84375 L 1.5 -1.84375 L 1.5 -0.859375 Z M 4.140625 -0.859375 "/></g></g></g><g fill="#f7fbfa" fill-opacity="1"><g transform="translate(248.211104, 277.312599)"><g><path d="M 4.84375 -4.90625 C 4.914062 -4.90625 4.953125 -4.867188 4.953125 -4.796875 L 4.953125 -0.09375 C 4.953125 -0.0390625 4.9375 -0.00390625 4.90625 0.015625 C 4.882812 0.046875 4.859375 0.0625 4.828125 0.0625 L 4.8125 0.0625 C 4.769531 0.0625 4.734375 0.0507812 4.703125 0.03125 C 4.679688 0.0078125 4.65625 -0.015625 4.625 -0.046875 L 1.5 -3.015625 L 1.5 -0.109375 C 1.5 -0.0351562 1.460938 0 1.390625 0 L 0.6875 0 C 0.613281 0 0.578125 -0.0351562 0.578125 -0.109375 L 0.578125 -4.828125 C 0.578125 -4.867188 0.585938 -4.898438 0.609375 -4.921875 C 0.640625 -4.953125 0.671875 -4.96875 0.703125 -4.96875 L 0.71875 -4.96875 C 0.75 -4.96875 0.773438 -4.953125 0.796875 -4.921875 C 0.828125 -4.898438 0.859375 -4.875 0.890625 -4.84375 L 4.046875 -1.875 L 4.046875 -4.796875 C 4.046875 -4.867188 4.078125 -4.90625 4.140625 -4.90625 Z M 4.84375 -4.90625 "/></g></g></g><g fill="#f7fbfa" fill-opacity="1"><g transform="translate(259.023413, 277.312599)"><g><path d="M 3.828125 -1.171875 C 3.867188 -1.203125 3.910156 -1.21875 3.953125 -1.21875 C 3.992188 -1.21875 4.023438 -1.203125 4.046875 -1.171875 L 4.40625 -0.609375 C 4.425781 -0.585938 4.429688 -0.554688 4.421875 -0.515625 C 4.410156 -0.484375 4.382812 -0.453125 4.34375 -0.421875 C 4.21875 -0.328125 4.070312 -0.238281 3.90625 -0.15625 C 3.738281 -0.0820312 3.5625 -0.0234375 3.375 0.015625 C 3.195312 0.0546875 3.023438 0.078125 2.859375 0.078125 C 2.578125 0.078125 2.304688 0.0351562 2.046875 -0.046875 C 1.785156 -0.128906 1.546875 -0.242188 1.328125 -0.390625 C 1.117188 -0.546875 0.9375 -0.726562 0.78125 -0.9375 C 0.625 -1.15625 0.503906 -1.390625 0.421875 -1.640625 C 0.335938 -1.890625 0.296875 -2.160156 0.296875 -2.453125 C 0.296875 -2.734375 0.335938 -3 0.421875 -3.25 C 0.503906 -3.507812 0.625 -3.742188 0.78125 -3.953125 C 0.9375 -4.160156 1.117188 -4.335938 1.328125 -4.484375 C 1.546875 -4.640625 1.785156 -4.757812 2.046875 -4.84375 C 2.304688 -4.925781 2.578125 -4.96875 2.859375 -4.96875 C 3.023438 -4.96875 3.195312 -4.945312 3.375 -4.90625 C 3.550781 -4.875 3.722656 -4.816406 3.890625 -4.734375 C 4.066406 -4.660156 4.222656 -4.570312 4.359375 -4.46875 C 4.398438 -4.4375 4.421875 -4.398438 4.421875 -4.359375 C 4.429688 -4.328125 4.425781 -4.300781 4.40625 -4.28125 L 4.046875 -3.71875 C 4.023438 -3.6875 3.992188 -3.664062 3.953125 -3.65625 C 3.921875 -3.65625 3.878906 -3.675781 3.828125 -3.71875 C 3.691406 -3.832031 3.535156 -3.914062 3.359375 -3.96875 C 3.191406 -4.03125 3.023438 -4.0625 2.859375 -4.0625 C 2.628906 -4.0625 2.410156 -4.019531 2.203125 -3.9375 C 2.003906 -3.863281 1.828125 -3.75 1.671875 -3.59375 C 1.523438 -3.445312 1.410156 -3.273438 1.328125 -3.078125 C 1.242188 -2.878906 1.203125 -2.671875 1.203125 -2.453125 C 1.203125 -2.222656 1.242188 -2.007812 1.328125 -1.8125 C 1.410156 -1.613281 1.523438 -1.441406 1.671875 -1.296875 C 1.828125 -1.148438 2.003906 -1.035156 2.203125 -0.953125 C 2.410156 -0.867188 2.628906 -0.828125 2.859375 -0.828125 C 3.015625 -0.828125 3.179688 -0.859375 3.359375 -0.921875 C 3.535156 -0.984375 3.691406 -1.066406 3.828125 -1.171875 Z M 3.828125 -1.171875 "/></g></g></g><g fill="#f7fbfa" fill-opacity="1"><g transform="translate(269.056116, 277.312599)"><g><path d="M 4.125 -4.90625 C 4.175781 -4.90625 4.207031 -4.890625 4.21875 -4.859375 C 4.238281 -4.828125 4.238281 -4.785156 4.21875 -4.734375 L 2.609375 -1.9375 L 2.609375 -0.140625 C 2.609375 -0.046875 2.5625 0 2.46875 0 L 1.84375 0 C 1.75 0 1.703125 -0.046875 1.703125 -0.140625 L 1.703125 -1.953125 L 0.09375 -4.734375 C 0.0703125 -4.796875 0.0703125 -4.835938 0.09375 -4.859375 C 0.113281 -4.890625 0.148438 -4.90625 0.203125 -4.90625 L 0.921875 -4.90625 C 0.960938 -4.90625 1 -4.894531 1.03125 -4.875 C 1.0625 -4.851562 1.082031 -4.820312 1.09375 -4.78125 L 2.15625 -2.875 L 3.21875 -4.78125 C 3.257812 -4.863281 3.316406 -4.90625 3.390625 -4.90625 Z M 4.125 -4.90625 "/></g></g></g></svg>